<svg width="98" height="101" viewBox="0 0 98 101" fill="none" xmlns="http://www.w3.org/2000/svg">
<path d="M35.8562 16.8195C35.9393 15.9246 35.329 15.4195 35.0864 14.7678C34.9452 14.3883 34.8224 13.6909 35.085 13.6928C36.9439 13.7073 38.0552 11.3109 40.1274 12.1643C48.5398 15.6272 57.6616 16.4592 66.2622 19.2233C66.8665 19.4175 67.4834 19.5724 68.09 19.7597C71.5954 20.8426 71.595 20.844 69.8223 23.8777C67.998 26.9984 67.7381 27.1623 63.9613 26.5846C56.1148 25.3845 48.274 24.1405 40.5057 22.4958C38.0833 21.983 35.7198 21.2327 34.0683 19.1907C33.6135 18.6457 33.2385 18.0387 32.9547 17.388C32.7205 16.8221 32.5119 16.0533 33.1275 15.6301C33.7663 15.1906 34.057 15.9461 34.4417 16.2905C34.792 16.6074 35.1263 16.9552 35.8562 16.8195Z" fill="#FFD360"/>
<path d="M29.3213 53.6001C32.1094 52.2195 35.1147 52.1333 38.1428 52.1925C44.7195 52.3213 51.2298 53.502 57.8204 53.4321C59.0948 53.4187 59.3733 53.9222 58.9672 55.2547C57.788 59.1255 54.6743 59.4789 51.4776 59.5055C45.062 59.5593 38.6448 59.4319 32.2284 59.4131C30.5656 59.4082 28.9017 59.5103 27.2402 59.5967C26.2793 59.6473 25.7959 59.0704 25.4378 58.3213C25.0662 57.5465 25.4254 57.088 26.0185 56.5104C27.0736 55.4827 27.9832 54.3093 29.3213 53.6001Z" fill="#FFD360"/>
<path d="M48.9201 94.1484C46.1026 95.7751 43.2945 97.4138 40.4664 99.0191C39.5662 99.5302 38.6159 100.07 37.6663 99.071C36.7994 98.1596 37.7081 97.5212 37.9876 96.7538C38.5263 95.2749 39.5152 94.1654 40.7002 93.2133C45.8546 89.0713 51.3023 85.4261 57.626 83.2647C58.3104 83.0309 58.9535 82.6404 59.6259 83.1705C60.3861 83.7701 59.7477 84.4203 59.6999 85.0843C59.4767 88.1847 57.2577 89.4663 54.9059 90.7288C52.882 91.8151 50.9184 93.0139 48.9284 94.1628L48.9201 94.1484Z" fill="#FFD360"/>
</svg>
