<svg width="1276" height="2" viewBox="0 0 1276 2" fill="none" xmlns="http://www.w3.org/2000/svg">
<g opacity="0.2">
<circle cx="1" cy="1" r="1" fill="#bf8563"/>
<circle cx="127" cy="1" r="1" fill="#bf8563"/>
<circle cx="253" cy="1" r="1" fill="#bf8563"/>
<circle cx="379" cy="1" r="1" fill="#bf8563"/>
<circle cx="8" cy="1" r="1" fill="#bf8563"/>
<circle cx="134" cy="1" r="1" fill="#bf8563"/>
<circle cx="260" cy="1" r="1" fill="#bf8563"/>
<circle cx="15" cy="1" r="1" fill="#bf8563"/>
<circle cx="141" cy="1" r="1" fill="#bf8563"/>
<circle cx="267" cy="1" r="1" fill="#bf8563"/>
<circle cx="22" cy="1" r="1" fill="#bf8563"/>
<circle cx="148" cy="1" r="1" fill="#bf8563"/>
<circle cx="274" cy="1" r="1" fill="#bf8563"/>
<circle cx="29" cy="1" r="1" fill="#bf8563"/>
<circle cx="155" cy="1" r="1" fill="#bf8563"/>
<circle cx="281" cy="1" r="1" fill="#bf8563"/>
<circle cx="36" cy="1" r="1" fill="#bf8563"/>
<circle cx="162" cy="1" r="1" fill="#bf8563"/>
<circle cx="288" cy="1" r="1" fill="#bf8563"/>
<circle cx="43" cy="1" r="1" fill="#bf8563"/>
<circle cx="169" cy="1" r="1" fill="#bf8563"/>
<circle cx="295" cy="1" r="1" fill="#bf8563"/>
<circle cx="50" cy="1" r="1" fill="#bf8563"/>
<circle cx="176" cy="1" r="1" fill="#bf8563"/>
<circle cx="302" cy="1" r="1" fill="#bf8563"/>
<circle cx="57" cy="1" r="1" fill="#bf8563"/>
<circle cx="183" cy="1" r="1" fill="#bf8563"/>
<circle cx="309" cy="1" r="1" fill="#bf8563"/>
<circle cx="64" cy="1" r="1" fill="#bf8563"/>
<circle cx="190" cy="1" r="1" fill="#bf8563"/>
<circle cx="316" cy="1" r="1" fill="#bf8563"/>
<circle cx="71" cy="1" r="1" fill="#bf8563"/>
<circle cx="197" cy="1" r="1" fill="#bf8563"/>
<circle cx="323" cy="1" r="1" fill="#bf8563"/>
<circle cx="78" cy="1" r="1" fill="#bf8563"/>
<circle cx="204" cy="1" r="1" fill="#bf8563"/>
<circle cx="330" cy="1" r="1" fill="#bf8563"/>
<circle cx="85" cy="1" r="1" fill="#bf8563"/>
<circle cx="211" cy="1" r="1" fill="#bf8563"/>
<circle cx="337" cy="1" r="1" fill="#bf8563"/>
<circle cx="92" cy="1" r="1" fill="#bf8563"/>
<circle cx="218" cy="1" r="1" fill="#bf8563"/>
<circle cx="344" cy="1" r="1" fill="#bf8563"/>
<circle cx="99" cy="1" r="1" fill="#bf8563"/>
<circle cx="225" cy="1" r="1" fill="#bf8563"/>
<circle cx="351" cy="1" r="1" fill="#bf8563"/>
<circle cx="106" cy="1" r="1" fill="#bf8563"/>
<circle cx="232" cy="1" r="1" fill="#bf8563"/>
<circle cx="358" cy="1" r="1" fill="#bf8563"/>
<circle cx="113" cy="1" r="1" fill="#bf8563"/>
<circle cx="239" cy="1" r="1" fill="#bf8563"/>
<circle cx="365" cy="1" r="1" fill="#bf8563"/>
<circle cx="120" cy="1" r="1" fill="#bf8563"/>
<circle cx="246" cy="1" r="1" fill="#bf8563"/>
<circle cx="372" cy="1" r="1" fill="#bf8563"/>
</g>
<g opacity="0.2">
<circle cx="386" cy="1" r="1" fill="#bf8563"/>
<circle cx="512" cy="1" r="1" fill="#bf8563"/>
<circle cx="638" cy="1" r="1" fill="#bf8563"/>
<circle cx="764" cy="1" r="1" fill="#bf8563"/>
<circle cx="393" cy="1" r="1" fill="#bf8563"/>
<circle cx="519" cy="1" r="1" fill="#bf8563"/>
<circle cx="645" cy="1" r="1" fill="#bf8563"/>
<circle cx="400" cy="1" r="1" fill="#bf8563"/>
<circle cx="526" cy="1" r="1" fill="#bf8563"/>
<circle cx="652" cy="1" r="1" fill="#bf8563"/>
<circle cx="407" cy="1" r="1" fill="#bf8563"/>
<circle cx="533" cy="1" r="1" fill="#bf8563"/>
<circle cx="659" cy="1" r="1" fill="#bf8563"/>
<circle cx="414" cy="1" r="1" fill="#bf8563"/>
<circle cx="540" cy="1" r="1" fill="#bf8563"/>
<circle cx="666" cy="1" r="1" fill="#bf8563"/>
<circle cx="421" cy="1" r="1" fill="#bf8563"/>
<circle cx="547" cy="1" r="1" fill="#bf8563"/>
<circle cx="673" cy="1" r="1" fill="#bf8563"/>
<circle cx="428" cy="1" r="1" fill="#bf8563"/>
<circle cx="554" cy="1" r="1" fill="#bf8563"/>
<circle cx="680" cy="1" r="1" fill="#bf8563"/>
<circle cx="435" cy="1" r="1" fill="#bf8563"/>
<circle cx="561" cy="1" r="1" fill="#bf8563"/>
<circle cx="687" cy="1" r="1" fill="#bf8563"/>
<circle cx="442" cy="1" r="1" fill="#bf8563"/>
<circle cx="568" cy="1" r="1" fill="#bf8563"/>
<circle cx="694" cy="1" r="1" fill="#bf8563"/>
<circle cx="449" cy="1" r="1" fill="#bf8563"/>
<circle cx="575" cy="1" r="1" fill="#bf8563"/>
<circle cx="701" cy="1" r="1" fill="#bf8563"/>
<circle cx="456" cy="1" r="1" fill="#bf8563"/>
<circle cx="582" cy="1" r="1" fill="#bf8563"/>
<circle cx="708" cy="1" r="1" fill="#bf8563"/>
<circle cx="463" cy="1" r="1" fill="#bf8563"/>
<circle cx="589" cy="1" r="1" fill="#bf8563"/>
<circle cx="715" cy="1" r="1" fill="#bf8563"/>
<circle cx="470" cy="1" r="1" fill="#bf8563"/>
<circle cx="596" cy="1" r="1" fill="#bf8563"/>
<circle cx="722" cy="1" r="1" fill="#bf8563"/>
<circle cx="477" cy="1" r="1" fill="#bf8563"/>
<circle cx="603" cy="1" r="1" fill="#bf8563"/>
<circle cx="729" cy="1" r="1" fill="#bf8563"/>
<circle cx="484" cy="1" r="1" fill="#bf8563"/>
<circle cx="610" cy="1" r="1" fill="#bf8563"/>
<circle cx="736" cy="1" r="1" fill="#bf8563"/>
<circle cx="491" cy="1" r="1" fill="#bf8563"/>
<circle cx="617" cy="1" r="1" fill="#bf8563"/>
<circle cx="743" cy="1" r="1" fill="#bf8563"/>
<circle cx="498" cy="1" r="1" fill="#bf8563"/>
<circle cx="624" cy="1" r="1" fill="#bf8563"/>
<circle cx="750" cy="1" r="1" fill="#bf8563"/>
<circle cx="505" cy="1" r="1" fill="#bf8563"/>
<circle cx="631" cy="1" r="1" fill="#bf8563"/>
<circle cx="757" cy="1" r="1" fill="#bf8563"/>
</g>
<g opacity="0.2">
<circle cx="771" cy="1" r="1" fill="#bf8563"/>
<circle cx="897" cy="1" r="1" fill="#bf8563"/>
<circle cx="1023" cy="1" r="1" fill="#bf8563"/>
<circle cx="1149" cy="1" r="1" fill="#bf8563"/>
<circle cx="778" cy="1" r="1" fill="#bf8563"/>
<circle cx="904" cy="1" r="1" fill="#bf8563"/>
<circle cx="1030" cy="1" r="1" fill="#bf8563"/>
<circle cx="785" cy="1" r="1" fill="#bf8563"/>
<circle cx="911" cy="1" r="1" fill="#bf8563"/>
<circle cx="1037" cy="1" r="1" fill="#bf8563"/>
<circle cx="792" cy="1" r="1" fill="#bf8563"/>
<circle cx="918" cy="1" r="1" fill="#bf8563"/>
<circle cx="1044" cy="1" r="1" fill="#bf8563"/>
<circle cx="799" cy="1" r="1" fill="#bf8563"/>
<circle cx="925" cy="1" r="1" fill="#bf8563"/>
<circle cx="1051" cy="1" r="1" fill="#bf8563"/>
<circle cx="806" cy="1" r="1" fill="#bf8563"/>
<circle cx="932" cy="1" r="1" fill="#bf8563"/>
<circle cx="1058" cy="1" r="1" fill="#bf8563"/>
<circle cx="813" cy="1" r="1" fill="#bf8563"/>
<circle cx="939" cy="1" r="1" fill="#bf8563"/>
<circle cx="1065" cy="1" r="1" fill="#bf8563"/>
<circle cx="820" cy="1" r="1" fill="#bf8563"/>
<circle cx="946" cy="1" r="1" fill="#bf8563"/>
<circle cx="1072" cy="1" r="1" fill="#bf8563"/>
<circle cx="827" cy="1" r="1" fill="#bf8563"/>
<circle cx="953" cy="1" r="1" fill="#bf8563"/>
<circle cx="1079" cy="1" r="1" fill="#bf8563"/>
<circle cx="834" cy="1" r="1" fill="#bf8563"/>
<circle cx="960" cy="1" r="1" fill="#bf8563"/>
<circle cx="1086" cy="1" r="1" fill="#bf8563"/>
<circle cx="841" cy="1" r="1" fill="#bf8563"/>
<circle cx="967" cy="1" r="1" fill="#bf8563"/>
<circle cx="1093" cy="1" r="1" fill="#bf8563"/>
<circle cx="848" cy="1" r="1" fill="#bf8563"/>
<circle cx="974" cy="1" r="1" fill="#bf8563"/>
<circle cx="1100" cy="1" r="1" fill="#bf8563"/>
<circle cx="855" cy="1" r="1" fill="#bf8563"/>
<circle cx="981" cy="1" r="1" fill="#bf8563"/>
<circle cx="1107" cy="1" r="1" fill="#bf8563"/>
<circle cx="862" cy="1" r="1" fill="#bf8563"/>
<circle cx="988" cy="1" r="1" fill="#bf8563"/>
<circle cx="1114" cy="1" r="1" fill="#bf8563"/>
<circle cx="869" cy="1" r="1" fill="#bf8563"/>
<circle cx="995" cy="1" r="1" fill="#bf8563"/>
<circle cx="1121" cy="1" r="1" fill="#bf8563"/>
<circle cx="876" cy="1" r="1" fill="#bf8563"/>
<circle cx="1002" cy="1" r="1" fill="#bf8563"/>
<circle cx="1128" cy="1" r="1" fill="#bf8563"/>
<circle cx="883" cy="1" r="1" fill="#bf8563"/>
<circle cx="1009" cy="1" r="1" fill="#bf8563"/>
<circle cx="1135" cy="1" r="1" fill="#bf8563"/>
<circle cx="890" cy="1" r="1" fill="#bf8563"/>
<circle cx="1016" cy="1" r="1" fill="#bf8563"/>
<circle cx="1142" cy="1" r="1" fill="#bf8563"/>
</g>
<g opacity="0.2">
<circle cx="1156" cy="1" r="1" fill="#bf8563"/>
<circle cx="1163" cy="1" r="1" fill="#bf8563"/>
<circle cx="1170" cy="1" r="1" fill="#bf8563"/>
<circle cx="1177" cy="1" r="1" fill="#bf8563"/>
<circle cx="1184" cy="1" r="1" fill="#bf8563"/>
<circle cx="1191" cy="1" r="1" fill="#bf8563"/>
<circle cx="1198" cy="1" r="1" fill="#bf8563"/>
<circle cx="1205" cy="1" r="1" fill="#bf8563"/>
<circle cx="1212" cy="1" r="1" fill="#bf8563"/>
<circle cx="1219" cy="1" r="1" fill="#bf8563"/>
<circle cx="1226" cy="1" r="1" fill="#bf8563"/>
<circle cx="1233" cy="1" r="1" fill="#bf8563"/>
<circle cx="1240" cy="1" r="1" fill="#bf8563"/>
<circle cx="1247" cy="1" r="1" fill="#bf8563"/>
<circle cx="1254" cy="1" r="1" fill="#bf8563"/>
<circle cx="1261" cy="1" r="1" fill="#bf8563"/>
<circle cx="1268" cy="1" r="1" fill="#bf8563"/>
<circle cx="1275" cy="1" r="1" fill="#bf8563"/>
</g>
</svg>
