<svg width="92" height="86" viewBox="0 0 92 86" fill="none" xmlns="http://www.w3.org/2000/svg">
<path d="M78.3607 57.2952C78.9347 57.9868 79.7234 57.9124 80.3557 58.2016C80.724 58.3701 81.3039 58.7764 81.1169 58.9607C79.7922 60.265 80.7009 62.7452 78.6322 63.6071C70.235 67.1069 63.1967 72.9686 55.1606 77.0957C54.596 77.3857 54.0503 77.7123 53.4889 78.0088C50.2445 79.7219 50.2437 79.7205 49.3521 76.3219C48.4354 72.8252 48.5033 72.5256 51.5824 70.2635C57.9793 65.5638 64.4032 60.8992 71.0592 56.5691C73.1347 55.2188 75.3365 54.0781 77.9482 54.3543C78.6552 54.418 79.3495 54.5821 80.0103 54.8415C80.5761 55.0761 81.2672 55.4721 81.1312 56.2068C80.9902 56.9692 80.2505 56.6405 79.7349 56.669C79.2631 56.6927 78.7808 56.683 78.3607 57.2952Z" fill="#038C33"/>
<path d="M56.9738 26.6664C55.9785 29.6142 53.9144 31.8001 51.7313 33.8995C46.9899 38.4589 41.5515 42.2275 36.9406 46.9371C36.049 47.8477 35.496 47.6886 34.841 46.4593C32.9378 42.8884 34.8895 40.4368 37.1312 38.1575C41.6297 33.583 46.2574 29.1354 50.8078 24.6116C51.987 23.4393 53.0913 22.1906 54.2051 20.9546C54.8488 20.2394 55.5985 20.3056 56.3814 20.582C57.1921 20.867 57.2623 21.4453 57.2513 22.2731C57.232 23.7459 57.4185 25.2188 56.9738 26.6664Z" fill="#038C33"/>
<path d="M14.4434 11.8528C15.2854 8.71031 16.1123 5.56601 16.977 2.43112C17.252 1.43313 17.5423 0.379519 18.9202 0.414404C20.1776 0.445938 19.9865 1.53988 20.3315 2.2802C20.9963 3.70681 21.0816 5.19061 20.917 6.70172C20.201 13.2753 18.9265 19.7049 15.9833 25.7048C15.6647 26.3541 15.486 27.085 14.6358 27.1856C13.6743 27.2991 13.6659 26.3879 13.2302 25.8847C11.1957 23.5345 11.8585 21.0592 12.6288 18.5035C13.2918 16.3042 13.8326 14.0681 14.4273 11.8485L14.4434 11.8528Z" fill="#038C33"/>
</svg>
