<svg width="137" height="22" viewBox="0 0 137 22" fill="none" xmlns="http://www.w3.org/2000/svg">
<path d="M10.5655 -0.000976562L13.0496 7.14547L20.6139 7.29961L14.5849 11.8705L16.7758 19.1122L10.5655 14.7907L4.35526 19.1122L6.54615 11.8705L0.517113 7.29961L8.08141 7.14547L10.5655 -0.000976562Z" fill="#F5C147"/>
<path d="M39.5328 -0.000976562L42.0169 7.14547L49.5812 7.29961L43.5522 11.8705L45.7431 19.1122L39.5328 14.7907L33.3225 19.1122L35.5134 11.8705L29.4844 7.29961L37.0487 7.14547L39.5328 -0.000976562Z" fill="#F5C147"/>
<path d="M68.5 -0.000976562L70.9841 7.14547L78.5484 7.29961L72.5193 11.8705L74.7102 19.1122L68.5 14.7907L62.2897 19.1122L64.4806 11.8705L58.4516 7.29961L66.0159 7.14547L68.5 -0.000976562Z" fill="#F5C147"/>
<path d="M97.4675 -0.00109863L99.9516 7.14534L107.516 7.29949L101.487 11.8704L103.678 19.1121L97.4675 14.7906L91.2572 19.1121L93.4481 11.8704L87.4191 7.29949L94.9834 7.14534L97.4675 -0.00109863Z" fill="#F5C147"/>
<path d="M126.435 -0.00109863L128.919 7.14534L136.483 7.29949L130.454 11.8704L132.645 19.1121L126.435 14.7906L120.225 19.1121L122.415 11.8704L116.386 7.29949L123.951 7.14534L126.435 -0.00109863Z" fill="#F5C147"/>
</svg>
