<svg width="117" height="21" viewBox="0 0 117 21" fill="none" xmlns="http://www.w3.org/2000/svg">
<path d="M29.36 20.96C31.48 20.96 33.72 19.56 37.56 16.08L37.12 14.92L33.28 16.72L33.12 16.52L34.6 7.56C34.8 6.44 34.92 4.92 34.92 4.04C34.92 1.6 33.56 0 31.12 0C27.32 0 24.68 2.64 22.12 8.72L21.68 8.48C22.28 6.16 22.48 4.92 22.48 3.84C22.48 1.6 21.28 0 18.96 0C15.16 0 12.48 2.64 9.92 8.72L9.48001 8.48C10.28 3.92 10.48 2.72 10.48 1.88C10.48 0.799999 9.84001 0 8.68001 0C6.76001 0 4.64 1.32 0.880005 4.88L1.28 6.04L5.16001 4.2L5.32 4.36L2.96 20.96L8.16001 20.36C10.28 9.92 13.32 4.28 16.2 4.28C17.08 4.28 17.48 4.88 17.48 5.88C17.48 6.36 17.4 7.16 17.28 7.92L15.16 20.96L20.36 20.36C22.48 9.92 25.52 4.28 28.36 4.28C29.24 4.28 29.64 4.88 29.64 5.88C29.64 6.36 29.56 7.16 29.44 7.92L27.96 16.44C27.68 18.2 27.64 18.68 27.64 19.12C27.64 20.24 28.28 20.96 29.36 20.96Z" fill="white"/>
<path d="M46.6041 20.92C53.2841 20.92 58.1641 16 58.1641 9.04C58.1641 3.44 54.8841 0 49.6441 0C42.9641 0 38.1241 4.96 38.1241 11.84C38.1241 17.48 41.3641 20.92 46.6041 20.92ZM46.8441 18.88C45.0441 18.4 43.8041 15.64 43.8041 12.16C43.8041 6.64 46.1641 2.44 49.4041 2.16C51.2441 2.56 52.4841 5.32 52.4841 8.8C52.4841 14.32 50.1241 18.56 46.8441 18.88Z" fill="white"/>
<path d="M87.4491 20.96C89.5691 20.96 91.8091 19.56 95.6491 16.08L95.2091 14.92L91.3691 16.72L91.2091 16.52L92.6891 7.56C92.8891 6.44 93.0091 4.92 93.0091 4.04C93.0091 1.6 91.6491 0 89.2091 0C85.4091 0 82.7691 2.64 80.2091 8.72L79.7691 8.48C80.3691 6.16 80.5691 4.92 80.5691 3.84C80.5691 1.6 79.3691 0 77.0491 0C73.2491 0 70.5691 2.64 68.0091 8.72L67.5691 8.48C68.3691 3.92 68.5691 2.72 68.5691 1.88C68.5691 0.799999 67.9291 0 66.7691 0C64.8491 0 62.7291 1.32 58.9691 4.88L59.3691 6.04L63.2491 4.2L63.4091 4.36L61.0491 20.96L66.2491 20.36C68.3691 9.92 71.4091 4.28 74.2891 4.28C75.1691 4.28 75.5691 4.88 75.5691 5.88C75.5691 6.36 75.4891 7.16 75.3691 7.92L73.2491 20.96L78.4491 20.36C80.5691 9.92 83.6091 4.28 86.4491 4.28C87.3291 4.28 87.7291 4.88 87.7291 5.88C87.7291 6.36 87.6491 7.16 87.5291 7.92L86.0491 16.44C85.7691 18.2 85.7291 18.68 85.7291 19.12C85.7291 20.24 86.3691 20.96 87.4491 20.96Z" fill="white"/>
<path d="M104.693 20.92C111.373 20.92 116.253 16 116.253 9.04C116.253 3.44 112.973 0 107.733 0C101.053 0 96.2131 4.96 96.2131 11.84C96.2131 17.48 99.4531 20.92 104.693 20.92ZM104.933 18.88C103.133 18.4 101.893 15.64 101.893 12.16C101.893 6.64 104.253 2.44 107.493 2.16C109.333 2.56 110.573 5.32 110.573 8.8C110.573 14.32 108.213 18.56 104.933 18.88Z" fill="white"/>
</svg>
