<svg width="1891" height="210" viewBox="0 0 1891 210" fill="none" xmlns="http://www.w3.org/2000/svg">
<mask id="mask0_445_51" style="mask-type:alpha" maskUnits="userSpaceOnUse" x="0" y="0" width="631" height="210">
<rect x="631" width="210" height="631" transform="rotate(90 631 0)" fill="#F0F2F1"/>
</mask>
<g mask="url(#mask0_445_51)">
<path d="M0.5 0.5H105.5C163.49 0.5 210.5 47.5101 210.5 105.5V210.5H0.5V0.5Z" fill="#038C33"/>
<path d="M421 105C421 73.185 421 0.000250816 421 0.000250816C421 0.000250816 342.175 0.00024831 316 0.000247478C258.01 0.000245635 211 47.0103 211 105C211 162.99 258.01 210 316 210C373.99 210 421 162.99 421 105Z" fill="#bf8563"/>
<path d="M420.5 0.500104C420.5 14.2889 423.216 27.9427 428.493 40.6819C433.769 53.4211 441.504 64.9962 451.254 74.7463C461.004 84.4965 472.579 92.2307 485.318 97.5075C498.057 102.784 511.711 105.5 525.5 105.5C539.289 105.5 552.943 102.784 565.682 97.5075C578.421 92.2307 589.996 84.4965 599.746 74.7463C609.496 64.9962 617.231 53.4211 622.507 40.6819C627.784 27.9427 630.5 14.2889 630.5 0.500114L525.5 0.500113L420.5 0.500104Z" fill="#022601"/>
<path d="M630.5 210.5C630.5 196.711 627.784 183.057 622.507 170.318C617.231 157.579 609.496 146.004 599.746 136.254C589.996 126.504 578.421 118.769 565.682 113.493C552.943 108.216 539.289 105.5 525.5 105.5C511.711 105.5 498.057 108.216 485.318 113.493C472.579 118.769 461.004 126.504 451.254 136.254C441.504 146.004 433.769 157.579 428.493 170.318C423.216 183.057 420.5 196.711 420.5 210.5L525.5 210.5H630.5Z" fill="#0A732F"/>
</g>
<mask id="mask1_445_51" style="mask-type:alpha" maskUnits="userSpaceOnUse" x="631" y="0" width="630" height="210">
<rect width="210" height="630" transform="matrix(-1.19249e-08 -1 -1 1.19249e-08 1261 210)" fill="#F0F2F1"/>
</mask>
<g mask="url(#mask1_445_51)">
<path d="M630.5 209.5L735.5 209.5C793.49 209.5 840.5 162.49 840.5 104.5L840.5 -0.499993L630.5 -0.5L630.5 209.5Z" fill="#038C33"/>
<path d="M1050.5 104.5C1050.5 72.6848 1050.5 -0.499993 1050.5 -0.499993C1050.5 -0.499993 971.675 -0.499996 945.5 -0.499997C887.51 -0.499999 840.5 46.5101 840.5 104.5C840.5 162.49 887.51 209.5 945.5 209.5C1003.49 209.5 1050.5 162.49 1050.5 104.5Z" fill="#bf8563"/>
<path d="M1050.5 210C1050.5 196.211 1053.22 182.558 1058.49 169.818C1063.77 157.079 1071.5 145.504 1081.25 135.754C1091 126.004 1102.58 118.27 1115.32 112.993C1128.06 107.716 1141.71 105 1155.5 105C1169.29 105 1182.94 107.716 1195.68 112.993C1208.42 118.27 1220 126.004 1229.75 135.754C1239.5 145.504 1247.23 157.079 1252.51 169.818C1257.78 182.558 1260.5 196.211 1260.5 210L1155.5 210L1050.5 210Z" fill="#022601"/>
<path d="M1260.5 -0.499932C1260.5 13.2889 1257.78 26.9426 1252.51 39.6818C1247.23 52.421 1239.5 63.9961 1229.75 73.7463C1220 83.4964 1208.42 91.2307 1195.68 96.5074C1182.94 101.784 1169.29 104.5 1155.5 104.5C1141.71 104.5 1128.06 101.784 1115.32 96.5074C1102.58 91.2307 1091 83.4964 1081.25 73.7463C1071.5 63.9961 1063.77 52.421 1058.49 39.6818C1053.22 26.9426 1050.5 13.2888 1050.5 -0.499948L1155.5 -0.499936L1260.5 -0.499932Z" fill="#0A732F"/>
</g>
<mask id="mask2_445_51" style="mask-type:alpha" maskUnits="userSpaceOnUse" x="1261" y="0" width="630" height="210">
<rect width="210" height="630" transform="matrix(-1.19249e-08 -1 -1 1.19249e-08 1891 210)" fill="#F0F2F1"/>
</mask>
<g mask="url(#mask2_445_51)">
<path d="M1260.5 209.5L1365.5 209.5C1423.49 209.5 1470.5 162.49 1470.5 104.5L1470.5 -0.499993L1260.5 -0.5L1260.5 209.5Z" fill="#038C33"/>
<path d="M1680.5 104.5C1680.5 72.6848 1680.5 -0.499993 1680.5 -0.499993C1680.5 -0.499993 1601.67 -0.499996 1575.5 -0.499997C1517.51 -0.499999 1470.5 46.5101 1470.5 104.5C1470.5 162.49 1517.51 209.5 1575.5 209.5C1633.49 209.5 1680.5 162.49 1680.5 104.5Z" fill="#bf8563"/>
<path d="M1680.5 210C1680.5 196.211 1683.22 182.558 1688.49 169.818C1693.77 157.079 1701.5 145.504 1711.25 135.754C1721 126.004 1732.58 118.27 1745.32 112.993C1758.06 107.716 1771.71 105 1785.5 105C1799.29 105 1812.94 107.716 1825.68 112.993C1838.42 118.27 1850 126.004 1859.75 135.754C1869.5 145.504 1877.23 157.079 1882.51 169.818C1887.78 182.558 1890.5 196.211 1890.5 210L1785.5 210L1680.5 210Z" fill="#022601"/>
<path d="M1890.5 -0.499932C1890.5 13.2889 1887.78 26.9426 1882.51 39.6818C1877.23 52.421 1869.5 63.9961 1859.75 73.7463C1850 83.4964 1838.42 91.2307 1825.68 96.5074C1812.94 101.784 1799.29 104.5 1785.5 104.5C1771.71 104.5 1758.06 101.784 1745.32 96.5074C1732.58 91.2307 1721 83.4964 1711.25 73.7463C1701.5 63.9961 1693.77 52.421 1688.49 39.6818C1683.22 26.9426 1680.5 13.2888 1680.5 -0.499948L1785.5 -0.499936L1890.5 -0.499932Z" fill="#0A732F"/>
</g>
</svg>
