<svg width="117" height="22" viewBox="0 0 117 22" fill="none" xmlns="http://www.w3.org/2000/svg">
<path d="M29.36 21.44C31.48 21.44 33.72 20.04 37.56 16.56L37.12 15.4L33.28 17.2L33.12 17L34.6 8.03998C34.8 6.91998 34.92 5.39998 34.92 4.51998C34.92 2.07998 33.56 0.47998 31.12 0.47998C27.32 0.47998 24.68 3.11998 22.12 9.19998L21.68 8.95998C22.28 6.63998 22.48 5.39998 22.48 4.31998C22.48 2.07998 21.28 0.47998 18.96 0.47998C15.16 0.47998 12.48 3.11998 9.92 9.19998L9.48001 8.95998C10.28 4.39998 10.48 3.19998 10.48 2.35998C10.48 1.27998 9.84001 0.47998 8.68001 0.47998C6.76001 0.47998 4.64 1.79998 0.880005 5.35998L1.28 6.51998L5.16001 4.67998L5.32 4.83998L2.96 21.44L8.16001 20.84C10.28 10.4 13.32 4.75998 16.2 4.75998C17.08 4.75998 17.48 5.35998 17.48 6.35998C17.48 6.83998 17.4 7.63998 17.28 8.39998L15.16 21.44L20.36 20.84C22.48 10.4 25.52 4.75998 28.36 4.75998C29.24 4.75998 29.64 5.35998 29.64 6.35998C29.64 6.83998 29.56 7.63998 29.44 8.39998L27.96 16.92C27.68 18.68 27.64 19.16 27.64 19.6C27.64 20.72 28.28 21.44 29.36 21.44Z" fill="#bf8563"/>
<path d="M46.6041 21.4C53.2841 21.4 58.1641 16.48 58.1641 9.51998C58.1641 3.91998 54.8841 0.47998 49.6441 0.47998C42.9641 0.47998 38.1241 5.43998 38.1241 12.32C38.1241 17.96 41.3641 21.4 46.6041 21.4ZM46.8441 19.36C45.0441 18.88 43.8041 16.12 43.8041 12.64C43.8041 7.11998 46.1641 2.91998 49.4041 2.63998C51.2441 3.03998 52.4841 5.79998 52.4841 9.27998C52.4841 14.8 50.1241 19.04 46.8441 19.36Z" fill="#bf8563"/>
<path d="M87.4491 21.44C89.5691 21.44 91.8091 20.04 95.6491 16.56L95.2091 15.4L91.3691 17.2L91.2091 17L92.6891 8.03998C92.8891 6.91998 93.0091 5.39998 93.0091 4.51998C93.0091 2.07998 91.6491 0.47998 89.2091 0.47998C85.4091 0.47998 82.7691 3.11998 80.2091 9.19998L79.7691 8.95998C80.3691 6.63998 80.5691 5.39998 80.5691 4.31998C80.5691 2.07998 79.3691 0.47998 77.0491 0.47998C73.2491 0.47998 70.5691 3.11998 68.0091 9.19998L67.5691 8.95998C68.3691 4.39998 68.5691 3.19998 68.5691 2.35998C68.5691 1.27998 67.9291 0.47998 66.7691 0.47998C64.8491 0.47998 62.7291 1.79998 58.9691 5.35998L59.3691 6.51998L63.2491 4.67998L63.4091 4.83998L61.0491 21.44L66.2491 20.84C68.3691 10.4 71.4091 4.75998 74.2891 4.75998C75.1691 4.75998 75.5691 5.35998 75.5691 6.35998C75.5691 6.83998 75.4891 7.63998 75.3691 8.39998L73.2491 21.44L78.4491 20.84C80.5691 10.4 83.6091 4.75998 86.4491 4.75998C87.3291 4.75998 87.7291 5.35998 87.7291 6.35998C87.7291 6.83998 87.6491 7.63998 87.5291 8.39998L86.0491 16.92C85.7691 18.68 85.7291 19.16 85.7291 19.6C85.7291 20.72 86.3691 21.44 87.4491 21.44Z" fill="#bf8563"/>
<path d="M104.693 21.4C111.373 21.4 116.253 16.48 116.253 9.51998C116.253 3.91998 112.973 0.47998 107.733 0.47998C101.053 0.47998 96.2131 5.43998 96.2131 12.32C96.2131 17.96 99.4531 21.4 104.693 21.4ZM104.933 19.36C103.133 18.88 101.893 16.12 101.893 12.64C101.893 7.11998 104.253 2.91998 107.493 2.63998C109.333 3.03998 110.573 5.79998 110.573 9.27998C110.573 14.8 108.213 19.04 104.933 19.36Z" fill="#bf8563"/>
</svg>
