<svg width="18" height="18" viewBox="0 0 18 18" fill="none" xmlns="http://www.w3.org/2000/svg">
<g clip-path="url(#clip0_445_110)">
<path fill-rule="evenodd" clip-rule="evenodd" d="M12.75 5.25H4.5V3.75H14.25V13.5H12.75V5.25Z" fill="white"/>
<path fill-rule="evenodd" clip-rule="evenodd" d="M7.18934 0.75H17.25V10.8107L11.0303 17.0303L9.96967 15.9697L15.75 10.1893V2.25H7.81066L2.03033 8.03033L0.969666 6.96967L7.18934 0.75Z" fill="white"/>
<path fill-rule="evenodd" clip-rule="evenodd" d="M3.75 9.75H8.25V14.25H3.75V9.75ZM5.25 11.25V12.75H6.75V11.25H5.25Z" fill="white"/>
<path fill-rule="evenodd" clip-rule="evenodd" d="M2.25 8.25V15.75H9.75V8.25H2.25ZM0.75 7.54004C0.75 7.10336 1.10337 6.75 1.54004 6.75H11.25V16.46C11.25 16.8966 10.8966 17.25 10.46 17.25H0.75V7.54004Z" fill="white"/>
</g>
<defs>
<clipPath id="clip0_445_110">
<rect width="18" height="18" fill="white"/>
</clipPath>
</defs>
</svg>
