<svg width="62" height="69" viewBox="0 0 62 69" fill="none" xmlns="http://www.w3.org/2000/svg">
<path d="M61.9653 30.6466C61.5509 37.1972 59.8526 43.3537 56.2595 48.9489C54.7156 51.3529 53.4074 53.9096 51.8088 56.2751C51.1253 57.2889 49.9208 57.9391 49.048 58.8452C44.5695 63.4945 39.5268 67.2285 32.9896 68.3686C24.0614 69.9261 15.6485 68.7312 8.1197 63.336C2.22297 59.1107 -0.157221 52.8315 0.00801143 46.1481C0.393631 30.5451 6.8754 17.5452 18.9689 7.50985C21.3734 5.49322 23.9885 3.73993 26.769 2.28018C33.6953 -1.29615 40.5401 -0.514932 46.9966 3.57063C51.3443 6.32135 54.7279 10.0029 56.7314 14.842C57.2825 16.1733 58.0822 17.4045 58.7934 18.6675C60.885 22.3815 62.2373 26.2874 61.9653 30.6466ZM36.5764 6.75541C35.6936 7.22048 34.8043 7.64562 33.9581 8.14334C31.0214 9.87114 27.8582 11.3288 25.2423 13.4531C22.7874 15.4468 20.9079 18.1472 18.794 20.5532C17.7828 21.7041 16.6097 22.7766 15.8625 24.0846C12.2646 30.3849 8.82046 36.8388 8.35517 44.2198C8.11357 48.0509 8.69931 51.9723 9.2966 55.7932C9.46537 56.872 10.8153 58.189 11.929 58.6294C18.3516 61.1661 24.9816 61.7446 31.4153 58.9018C43.4742 53.574 49.93 43.617 53.1392 31.3512C54.6531 25.5649 54.3616 19.9284 49.1651 15.6915C48.1726 14.8821 47.101 14.1648 46.1422 13.3192C45.6667 12.9 44.9872 12.2388 45.0454 11.7671C45.4204 8.75027 43.8369 7.68273 41.1576 7.55965C40.0543 7.50892 38.9391 7.56787 37.8494 7.42436C37.3431 7.35788 36.8852 6.9264 36.5764 6.75541ZM29.7943 3.36275C26.5319 3.80152 21.2016 7.1775 20.4671 9.2494L29.7943 3.36275Z" fill="#038C33"/>
</svg>
