<svg width="85" height="91" viewBox="0 0 85 91" fill="none" xmlns="http://www.w3.org/2000/svg">
<path d="M28.1883 78.1414C27.5106 78.7318 27.6038 79.5185 27.3298 80.1575C27.1701 80.5298 26.7778 81.1192 26.5891 80.9366C25.2535 79.6435 22.7957 80.6112 21.8846 78.5637C18.1852 70.2525 12.157 63.3562 7.83914 55.421C7.53578 54.8635 7.19616 54.3257 6.88636 53.7716C5.09628 50.569 5.09759 50.5682 8.47395 49.5957C11.9477 48.5957 12.2489 48.6564 14.5839 51.6806C19.4351 57.9634 24.2518 64.2741 28.7397 70.8247C30.1392 72.8673 31.3322 75.0412 31.1185 77.6588C31.0716 78.3671 30.9242 79.0652 30.6807 79.7319C30.4597 80.3032 30.0802 81.0036 29.3426 80.8852C28.577 80.7624 28.8879 80.015 28.8471 79.5003C28.8122 79.0292 28.8103 78.5468 28.1883 78.1414Z" fill="#038C33"/>
<path d="M58.2973 56.0289C55.3266 55.1043 53.0919 53.093 50.941 50.9607C46.2697 46.3295 42.3722 40.9827 37.5538 36.4857C36.6222 35.6161 36.7679 35.0594 37.9813 34.3752C41.5057 32.3872 44.0033 34.2798 46.3354 36.4664C51.0161 40.8543 55.573 45.3745 60.2042 49.8155C61.4043 50.9664 62.6791 52.0405 63.9413 53.1245C64.6717 53.7509 64.6235 54.502 64.3658 55.2913C64.1002 56.1085 63.5238 56.1925 62.6959 56.2014C61.2232 56.2172 59.7551 56.4388 58.2973 56.0289Z" fill="#038C33"/>
<path d="M72.0905 13.1565C75.2523 13.9232 78.4155 14.6748 81.5701 15.4643C82.5744 15.7155 83.6346 15.9804 83.6327 17.3588C83.6312 18.6166 82.533 18.4517 81.8011 18.8143C80.3908 19.513 78.9095 19.6337 77.3948 19.5052C70.806 18.9465 64.3478 17.826 58.2793 15.027C57.6226 14.7239 56.8877 14.5628 56.7668 13.7152C56.6303 12.7567 57.541 12.7266 58.0337 12.279C60.3346 10.1889 62.8251 10.7924 65.3985 11.5013C67.6129 12.1116 69.8613 12.5989 72.0945 13.1404L72.0905 13.1565Z" fill="#038C33"/>
</svg>
