<svg width="1264" height="1260" viewBox="0 0 1264 1260" fill="none" xmlns="http://www.w3.org/2000/svg">
<path d="M420.5 630L420.5 735C420.5 792.99 373.49 840 315.5 840L210.5 840L210.5 630L420.5 630Z" fill="#038C33"/>
<path d="M420.5 0L420.5 105C420.5 162.99 373.49 210 315.5 210L210.5 210L210.5 1.58546e-05L420.5 0Z" fill="#038C33"/>
<path d="M315.5 1050C283.685 1050 210.5 1050 210.5 1050C210.5 1050 210.5 971.175 210.5 945C210.5 887.01 257.51 840 315.5 840C373.49 840 420.5 887.01 420.5 945C420.5 1002.99 373.49 1050 315.5 1050Z" fill="#bf8563"/>
<path d="M315.5 420C283.685 420 210.5 420 210.5 420C210.5 420 210.5 341.175 210.5 315C210.5 257.01 257.51 210 315.5 210C373.49 210 420.5 257.01 420.5 315C420.5 372.99 373.49 420 315.5 420Z" fill="#bf8563"/>
<path d="M421 420C407.211 420 393.558 422.716 380.818 427.993C368.079 433.269 356.504 441.004 346.754 450.754C337.004 460.504 329.27 472.079 323.993 484.818C318.716 497.557 316 511.211 316 525C316 538.789 318.716 552.443 323.993 565.182C329.27 577.921 337.004 589.496 346.754 599.246C356.504 608.996 368.079 616.731 380.818 622.007C393.558 627.284 407.211 630 421 630L421 525L421 420Z" fill="#022601"/>
<path d="M210.5 630C224.289 630 237.943 627.284 250.682 622.007C263.421 616.731 274.996 608.996 284.746 599.246C294.497 589.496 302.231 577.921 307.508 565.182C312.784 552.443 315.5 538.789 315.5 525C315.5 511.211 312.784 497.557 307.508 484.818C302.231 472.079 294.497 460.504 284.746 450.754C274.996 441.004 263.421 433.269 250.682 427.993C237.943 422.716 224.289 420 210.5 420L210.5 525L210.5 630Z" fill="#0A732F"/>
<path d="M421 1050C407.211 1050 393.558 1052.72 380.818 1057.99C368.079 1063.27 356.504 1071 346.754 1080.75C337.004 1090.5 329.27 1102.08 323.993 1114.82C318.716 1127.56 316 1141.21 316 1155C316 1168.79 318.716 1182.44 323.993 1195.18C329.27 1207.92 337.004 1219.5 346.754 1229.25C356.504 1239 368.079 1246.73 380.818 1252.01C393.558 1257.28 407.211 1260 421 1260L421 1155L421 1050Z" fill="#022601"/>
<path d="M210.5 1260C224.289 1260 237.943 1257.28 250.682 1252.01C263.421 1246.73 274.996 1239 284.746 1229.25C294.497 1219.5 302.231 1207.92 307.508 1195.18C312.784 1182.44 315.5 1168.79 315.5 1155C315.5 1141.21 312.784 1127.56 307.508 1114.82C302.231 1102.08 294.497 1090.5 284.746 1080.75C274.996 1071 263.421 1063.27 250.682 1057.99C237.943 1052.72 224.289 1050 210.5 1050L210.5 1155L210.5 1260Z" fill="#0A732F"/>
<path d="M1053 630L1053 735C1053 792.99 1005.99 840 948 840L843 840L843 630L1053 630Z" fill="#038C33"/>
<path d="M1053 0L1053 105C1053 162.99 1005.99 210 948 210L843 210L843 1.58546e-05L1053 0Z" fill="#038C33"/>
<path d="M948 1050C916.185 1050 843 1050 843 1050C843 1050 843 971.175 843 945C843 887.01 890.01 840 948 840C1005.99 840 1053 887.01 1053 945C1053 1002.99 1005.99 1050 948 1050Z" fill="#bf8563"/>
<path d="M948 420C916.185 420 843 420 843 420C843 420 843 341.175 843 315C843 257.01 890.01 210 948 210C1005.99 210 1053 257.01 1053 315C1053 372.99 1005.99 420 948 420Z" fill="#bf8563"/>
<path d="M1053.5 420C1039.71 420 1026.06 422.716 1013.32 427.993C1000.58 433.269 989.004 441.004 979.254 450.754C969.504 460.504 961.769 472.079 956.493 484.818C951.216 497.557 948.5 511.211 948.5 525C948.5 538.789 951.216 552.443 956.493 565.182C961.769 577.921 969.504 589.496 979.254 599.246C989.004 608.996 1000.58 616.731 1013.32 622.007C1026.06 627.284 1039.71 630 1053.5 630L1053.5 525L1053.5 420Z" fill="#022601"/>
<path d="M843 630C856.789 630 870.443 627.284 883.182 622.007C895.921 616.731 907.496 608.996 917.246 599.246C926.996 589.496 934.731 577.921 940.007 565.182C945.284 552.443 948 538.789 948 525C948 511.211 945.284 497.557 940.007 484.818C934.731 472.079 926.996 460.504 917.246 450.754C907.496 441.004 895.921 433.269 883.182 427.993C870.443 422.716 856.789 420 843 420L843 525L843 630Z" fill="#0A732F"/>
<path d="M1053.5 1050C1039.71 1050 1026.06 1052.72 1013.32 1057.99C1000.58 1063.27 989.004 1071 979.254 1080.75C969.504 1090.5 961.769 1102.08 956.493 1114.82C951.216 1127.56 948.5 1141.21 948.5 1155C948.5 1168.79 951.216 1182.44 956.493 1195.18C961.769 1207.92 969.504 1219.5 979.254 1229.25C989.004 1239 1000.58 1246.73 1013.32 1252.01C1026.06 1257.28 1039.71 1260 1053.5 1260L1053.5 1155L1053.5 1050Z" fill="#022601"/>
<path d="M843 1260C856.789 1260 870.443 1257.28 883.182 1252.01C895.921 1246.73 907.496 1239 917.246 1229.25C926.996 1219.5 934.731 1207.92 940.007 1195.18C945.284 1182.44 948 1168.79 948 1155C948 1141.21 945.284 1127.56 940.007 1114.82C934.731 1102.08 926.996 1090.5 917.246 1080.75C907.496 1071 895.921 1063.27 883.182 1057.99C870.443 1052.72 856.789 1050 843 1050L843 1155L843 1260Z" fill="#0A732F"/>
<path d="M631 1050L631 1155C631 1212.99 583.99 1260 526 1260L421 1260L421 1050L631 1050Z" fill="#038C33"/>
<path d="M631 420L631 525C631 582.99 583.99 630 526 630L421 630L421 420L631 420Z" fill="#038C33"/>
<path d="M526 210C494.185 210 421 210 421 210C421 210 421 131.175 421 105C421 47.0101 468.01 1.23054e-05 526 7.92728e-06C583.99 3.54916e-06 631 47.0101 631 105C631 162.99 583.99 210 526 210Z" fill="#bf8563"/>
<path d="M526 840C494.185 840 421 840 421 840C421 840 421 761.175 421 735C421 677.01 468.01 630 526 630C583.99 630 631 677.01 631 735C631 792.99 583.99 840 526 840Z" fill="#bf8563"/>
<path d="M631.5 840C617.711 840 604.057 842.716 591.318 847.993C578.579 853.269 567.004 861.004 557.254 870.754C547.504 880.504 539.769 892.079 534.493 904.818C529.216 917.557 526.5 931.211 526.5 945C526.5 958.789 529.216 972.443 534.493 985.182C539.769 997.921 547.504 1009.5 557.254 1019.25C567.004 1029 578.579 1036.73 591.318 1042.01C604.057 1047.28 617.711 1050 631.5 1050L631.5 945L631.5 840Z" fill="#022601"/>
<path d="M421 1050C434.789 1050 448.443 1047.28 461.182 1042.01C473.921 1036.73 485.496 1029 495.246 1019.25C504.996 1009.5 512.731 997.921 518.007 985.182C523.284 972.443 526 958.789 526 945C526 931.211 523.284 917.557 518.007 904.818C512.731 892.079 504.996 880.504 495.246 870.754C485.496 861.004 473.921 853.269 461.182 847.993C448.443 842.716 434.789 840 421 840L421 945L421 1050Z" fill="#0A732F"/>
<path d="M631.5 210C617.711 210 604.057 212.716 591.318 217.993C578.579 223.269 567.004 231.004 557.254 240.754C547.504 250.504 539.769 262.079 534.493 274.818C529.216 287.557 526.5 301.211 526.5 315C526.5 328.789 529.216 342.443 534.493 355.182C539.769 367.921 547.504 379.496 557.254 389.246C567.004 398.996 578.579 406.731 591.318 412.007C604.057 417.284 617.711 420 631.5 420L631.5 315L631.5 210Z" fill="#022601"/>
<path d="M421 420C434.789 420 448.443 417.284 461.182 412.007C473.921 406.731 485.496 398.996 495.246 389.246C504.996 379.496 512.731 367.921 518.007 355.182C523.284 342.443 526 328.789 526 315C526 301.211 523.284 287.557 518.007 274.818C512.731 262.079 504.996 250.504 495.246 240.754C485.496 231.004 473.921 223.269 461.182 217.993C448.443 212.716 434.789 210 421 210L421 315L421 420Z" fill="#0A732F"/>
<path d="M1263.5 1050L1263.5 1155C1263.5 1212.99 1216.49 1260 1158.5 1260L1053.5 1260L1053.5 1050L1263.5 1050Z" fill="#038C33"/>
<path d="M1263.5 420L1263.5 525C1263.5 582.99 1216.49 630 1158.5 630L1053.5 630L1053.5 420L1263.5 420Z" fill="#038C33"/>
<path d="M1158.5 210C1126.68 210 1053.5 210 1053.5 210C1053.5 210 1053.5 131.175 1053.5 105C1053.5 47.0101 1100.51 1.23054e-05 1158.5 7.92728e-06C1216.49 3.54916e-06 1263.5 47.0101 1263.5 105C1263.5 162.99 1216.49 210 1158.5 210Z" fill="#bf8563"/>
<path d="M1158.5 840C1126.68 840 1053.5 840 1053.5 840C1053.5 840 1053.5 761.175 1053.5 735C1053.5 677.01 1100.51 630 1158.5 630C1216.49 630 1263.5 677.01 1263.5 735C1263.5 792.99 1216.49 840 1158.5 840Z" fill="#bf8563"/>
<path d="M1264 840C1250.21 840 1236.56 842.716 1223.82 847.993C1211.08 853.269 1199.5 861.004 1189.75 870.754C1180 880.504 1172.27 892.079 1166.99 904.818C1161.72 917.557 1159 931.211 1159 945C1159 958.789 1161.72 972.443 1166.99 985.182C1172.27 997.921 1180 1009.5 1189.75 1019.25C1199.5 1029 1211.08 1036.73 1223.82 1042.01C1236.56 1047.28 1250.21 1050 1264 1050L1264 945L1264 840Z" fill="#022601"/>
<path d="M1053.5 1050C1067.29 1050 1080.94 1047.28 1093.68 1042.01C1106.42 1036.73 1118 1029 1127.75 1019.25C1137.5 1009.5 1145.23 997.921 1150.51 985.182C1155.78 972.443 1158.5 958.789 1158.5 945C1158.5 931.211 1155.78 917.557 1150.51 904.818C1145.23 892.079 1137.5 880.504 1127.75 870.754C1118 861.004 1106.42 853.269 1093.68 847.993C1080.94 842.716 1067.29 840 1053.5 840L1053.5 945L1053.5 1050Z" fill="#0A732F"/>
<path d="M1264 210C1250.21 210 1236.56 212.716 1223.82 217.993C1211.08 223.269 1199.5 231.004 1189.75 240.754C1180 250.504 1172.27 262.079 1166.99 274.818C1161.72 287.557 1159 301.211 1159 315C1159 328.789 1161.72 342.443 1166.99 355.182C1172.27 367.921 1180 379.496 1189.75 389.246C1199.5 398.996 1211.08 406.731 1223.82 412.007C1236.56 417.284 1250.21 420 1264 420L1264 315L1264 210Z" fill="#022601"/>
<path d="M1053.5 420C1067.29 420 1080.94 417.284 1093.68 412.007C1106.42 406.731 1118 398.996 1127.75 389.246C1137.5 379.496 1145.23 367.921 1150.51 355.182C1155.78 342.443 1158.5 328.789 1158.5 315C1158.5 301.211 1155.78 287.557 1150.51 274.818C1145.23 262.079 1137.5 250.504 1127.75 240.754C1118 231.004 1106.42 223.269 1093.68 217.993C1080.94 212.716 1067.29 210 1053.5 210L1053.5 315L1053.5 420Z" fill="#0A732F"/>
<path d="M210.5 210L210.5 315C210.5 372.99 163.49 420 105.5 420L0.500092 420L0.500076 210L210.5 210Z" fill="#038C33"/>
<path d="M210.5 840L210.5 945C210.5 1002.99 163.49 1050 105.5 1050L0.500092 1050L0.500076 840L210.5 840Z" fill="#038C33"/>
<path d="M105.5 630C73.6849 630 0.500082 630 0.500082 630C0.500082 630 0.500076 551.175 0.500074 525C0.50007 467.01 47.5102 420 105.5 420C163.49 420 210.5 467.01 210.5 525C210.5 582.99 163.49 630 105.5 630Z" fill="#bf8563"/>
<path d="M105.5 1260C73.6849 1260 0.500082 1260 0.500082 1260C0.500082 1260 0.500076 1181.17 0.500074 1155C0.50007 1097.01 47.5102 1050 105.5 1050C163.49 1050 210.5 1097.01 210.5 1155C210.5 1212.99 163.49 1260 105.5 1260Z" fill="#bf8563"/>
<path d="M210.5 -1.37691e-05C196.711 -1.19609e-05 183.057 2.71589 170.318 7.99264C157.579 13.2694 146.004 21.0036 136.254 30.7538C126.504 40.5039 118.769 52.079 113.493 64.8182C108.216 77.5574 105.5 91.2112 105.5 105C105.5 118.789 108.216 132.443 113.493 145.182C118.769 157.921 126.504 169.496 136.254 179.246C146.004 188.996 157.579 196.731 170.318 202.007C183.058 207.284 196.711 210 210.5 210L210.5 105L210.5 -1.37691e-05Z" fill="#022601"/>
<path d="M0.000107407 210C13.7889 210 27.4427 207.284 40.1819 202.007C52.9211 196.731 64.4962 188.996 74.2463 179.246C83.9965 169.496 91.7307 157.921 97.0075 145.182C102.284 132.443 105 118.789 105 105C105 91.2112 102.284 77.5574 97.0074 64.8182C91.7307 52.0791 83.9965 40.5039 74.2463 30.7538C64.4961 21.0036 52.921 13.2694 40.1818 7.99265C27.4427 2.71591 13.7889 5.6808e-06 8.39233e-05 7.92728e-06L9.948e-05 105L0.000107407 210Z" fill="#0A732F"/>
<path d="M210.5 630C196.711 630 183.057 632.716 170.318 637.993C157.579 643.269 146.004 651.004 136.254 660.754C126.504 670.504 118.769 682.079 113.493 694.818C108.216 707.557 105.5 721.211 105.5 735C105.5 748.789 108.216 762.443 113.493 775.182C118.769 787.921 126.504 799.496 136.254 809.246C146.004 818.996 157.579 826.731 170.318 832.007C183.058 837.284 196.711 840 210.5 840L210.5 735L210.5 630Z" fill="#022601"/>
<path d="M0.000107407 840C13.7889 840 27.4427 837.284 40.1819 832.007C52.9211 826.731 64.4962 818.996 74.2463 809.246C83.9965 799.496 91.7307 787.921 97.0075 775.182C102.284 762.443 105 748.789 105 735C105 721.211 102.284 707.557 97.0074 694.818C91.7307 682.079 83.9965 670.504 74.2463 660.754C64.4961 651.004 52.921 643.269 40.1818 637.993C27.4427 632.716 13.7889 630 8.39233e-05 630L9.948e-05 735L0.000107407 840Z" fill="#0A732F"/>
<path d="M842.5 210L842.5 315C842.5 372.99 795.49 420 737.5 420L632.5 420L632.5 210L842.5 210Z" fill="#038C33"/>
<path d="M842.5 840L842.5 945C842.5 1002.99 795.49 1050 737.5 1050L632.5 1050L632.5 840L842.5 840Z" fill="#038C33"/>
<path d="M737.5 630C705.685 630 632.5 630 632.5 630C632.5 630 632.5 551.175 632.5 525C632.5 467.01 679.51 420 737.5 420C795.49 420 842.5 467.01 842.5 525C842.5 582.99 795.49 630 737.5 630Z" fill="#bf8563"/>
<path d="M737.5 1260C705.685 1260 632.5 1260 632.5 1260C632.5 1260 632.5 1181.17 632.5 1155C632.5 1097.01 679.51 1050 737.5 1050C795.49 1050 842.5 1097.01 842.5 1155C842.5 1212.99 795.49 1260 737.5 1260Z" fill="#bf8563"/>
<path d="M842.5 -1.37691e-05C828.711 -1.19609e-05 815.058 2.71589 802.318 7.99264C789.579 13.2694 778.004 21.0036 768.254 30.7538C758.504 40.5039 750.769 52.079 745.493 64.8182C740.216 77.5574 737.5 91.2112 737.5 105C737.5 118.789 740.216 132.443 745.493 145.182C750.77 157.921 758.504 169.496 768.254 179.246C778.004 188.996 789.579 196.731 802.318 202.007C815.058 207.284 828.711 210 842.5 210L842.5 105L842.5 -1.37691e-05Z" fill="#022601"/>
<path d="M632 210C645.789 210 659.443 207.284 672.182 202.007C684.921 196.731 696.496 188.996 706.246 179.246C715.997 169.496 723.731 157.921 729.007 145.182C734.284 132.443 737 118.789 737 105C737 91.2112 734.284 77.5574 729.007 64.8182C723.731 52.0791 715.996 40.5039 706.246 30.7538C696.496 21.0036 684.921 13.2694 672.182 7.99265C659.443 2.71591 645.789 5.6808e-06 632 7.92728e-06L632 105L632 210Z" fill="#0A732F"/>
<path d="M842.5 630C828.711 630 815.058 632.716 802.318 637.993C789.579 643.269 778.004 651.004 768.254 660.754C758.504 670.504 750.769 682.079 745.493 694.818C740.216 707.557 737.5 721.211 737.5 735C737.5 748.789 740.216 762.443 745.493 775.182C750.77 787.921 758.504 799.496 768.254 809.246C778.004 818.996 789.579 826.731 802.318 832.007C815.058 837.284 828.711 840 842.5 840L842.5 735L842.5 630Z" fill="#022601"/>
<path d="M632 840C645.789 840 659.443 837.284 672.182 832.007C684.921 826.731 696.496 818.996 706.246 809.246C715.997 799.496 723.731 787.921 729.007 775.182C734.284 762.443 737 748.789 737 735C737 721.211 734.284 707.557 729.007 694.818C723.731 682.079 715.996 670.504 706.246 660.754C696.496 651.004 684.921 643.269 672.182 637.993C659.443 632.716 645.789 630 632 630L632 735L632 840Z" fill="#0A732F"/>
</svg>
