<svg width="256" height="256" viewBox="0 0 256 256" fill="none" xmlns="http://www.w3.org/2000/svg">
<rect width="256" height="256" fill="#bf8563"/>
<path d="M98.48 138.96C100.6 138.96 102.84 137.56 106.68 134.08L106.24 132.92L102.4 134.72L102.24 134.52L103.72 125.56C103.92 124.44 104.04 122.92 104.04 122.04C104.04 119.6 102.68 118 100.24 118C96.44 118 93.8 120.64 91.24 126.72L90.8 126.48C91.4 124.16 91.6 122.92 91.6 121.84C91.6 119.6 90.4 118 88.08 118C84.28 118 81.6 120.64 79.04 126.72L78.6 126.48C79.4 121.92 79.6 120.72 79.6 119.88C79.6 118.8 78.96 118 77.8 118C75.88 118 73.76 119.32 70 122.88L70.4 124.04L74.28 122.2L74.44 122.36L72.08 138.96L77.28 138.36C79.4 127.92 82.44 122.28 85.32 122.28C86.2 122.28 86.6 122.88 86.6 123.88C86.6 124.36 86.52 125.16 86.4 125.92L84.28 138.96L89.48 138.36C91.6 127.92 94.64 122.28 97.48 122.28C98.36 122.28 98.76 122.88 98.76 123.88C98.76 124.36 98.68 125.16 98.56 125.92L97.08 134.44C96.8 136.2 96.76 136.68 96.76 137.12C96.76 138.24 97.4 138.96 98.48 138.96Z" fill="white"/>
<path d="M115.724 138.92C122.404 138.92 127.284 134 127.284 127.04C127.284 121.44 124.004 118 118.764 118C112.084 118 107.244 122.96 107.244 129.84C107.244 135.48 110.484 138.92 115.724 138.92ZM115.964 136.88C114.164 136.4 112.924 133.64 112.924 130.16C112.924 124.64 115.284 120.44 118.524 120.16C120.364 120.56 121.604 123.32 121.604 126.8C121.604 132.32 119.244 136.56 115.964 136.88Z" fill="white"/>
<path d="M156.569 138.96C158.689 138.96 160.929 137.56 164.769 134.08L164.329 132.92L160.489 134.72L160.329 134.52L161.809 125.56C162.009 124.44 162.129 122.92 162.129 122.04C162.129 119.6 160.769 118 158.329 118C154.529 118 151.889 120.64 149.329 126.72L148.889 126.48C149.489 124.16 149.689 122.92 149.689 121.84C149.689 119.6 148.489 118 146.169 118C142.369 118 139.689 120.64 137.129 126.72L136.689 126.48C137.489 121.92 137.689 120.72 137.689 119.88C137.689 118.8 137.049 118 135.889 118C133.969 118 131.849 119.32 128.089 122.88L128.489 124.04L132.369 122.2L132.529 122.36L130.169 138.96L135.369 138.36C137.489 127.92 140.529 122.28 143.409 122.28C144.289 122.28 144.689 122.88 144.689 123.88C144.689 124.36 144.609 125.16 144.489 125.92L142.369 138.96L147.569 138.36C149.689 127.92 152.729 122.28 155.569 122.28C156.449 122.28 156.849 122.88 156.849 123.88C156.849 124.36 156.769 125.16 156.649 125.92L155.169 134.44C154.889 136.2 154.849 136.68 154.849 137.12C154.849 138.24 155.489 138.96 156.569 138.96Z" fill="white"/>
<path d="M173.813 138.92C180.493 138.92 185.373 134 185.373 127.04C185.373 121.44 182.093 118 176.853 118C170.173 118 165.333 122.96 165.333 129.84C165.333 135.48 168.573 138.92 173.813 138.92ZM174.053 136.88C172.253 136.4 171.013 133.64 171.013 130.16C171.013 124.64 173.373 120.44 176.613 120.16C178.453 120.56 179.693 123.32 179.693 126.8C179.693 132.32 177.333 136.56 174.053 136.88Z" fill="white"/>
</svg>
