<svg width="32" height="32" viewBox="0 0 32 32" fill="none" xmlns="http://www.w3.org/2000/svg">
<g clip-path="url(#clip0_531_258)">
<rect width="32" height="32" fill="#bf8563"/>
<path d="M26.48 26.96C28.6 26.96 30.84 25.56 34.68 22.08L34.24 20.92L30.4 22.72L30.24 22.52L31.72 13.56C31.92 12.44 32.04 10.92 32.04 10.04C32.04 7.6 30.68 6 28.24 6C24.44 6 21.8 8.64 19.24 14.72L18.8 14.48C19.4 12.16 19.6 10.92 19.6 9.84C19.6 7.6 18.4 6 16.08 6C12.28 6 9.6 8.64 7.04 14.72L6.6 14.48C7.4 9.92 7.6 8.72 7.6 7.88C7.6 6.8 6.96 6 5.8 6C3.88 6 1.76 7.32 -2 10.88L-1.6 12.04L2.28 10.2L2.44 10.36L0.0799999 26.96L5.28 26.36C7.4 15.92 10.44 10.28 13.32 10.28C14.2 10.28 14.6 10.88 14.6 11.88C14.6 12.36 14.52 13.16 14.4 13.92L12.28 26.96L17.48 26.36C19.6 15.92 22.64 10.28 25.48 10.28C26.36 10.28 26.76 10.88 26.76 11.88C26.76 12.36 26.68 13.16 26.56 13.92L25.08 22.44C24.8 24.2 24.76 24.68 24.76 25.12C24.76 26.24 25.4 26.96 26.48 26.96Z" fill="white"/>
<path d="M43.7241 26.92C50.4041 26.92 55.2841 22 55.2841 15.04C55.2841 9.44 52.0041 6 46.7641 6C40.0841 6 35.2441 10.96 35.2441 17.84C35.2441 23.48 38.4841 26.92 43.7241 26.92ZM43.9641 24.88C42.1641 24.4 40.9241 21.64 40.9241 18.16C40.9241 12.64 43.2841 8.44 46.5241 8.16C48.3641 8.56 49.6041 11.32 49.6041 14.8C49.6041 20.32 47.2441 24.56 43.9641 24.88Z" fill="white"/>
<path d="M84.5691 26.96C86.6891 26.96 88.9291 25.56 92.7691 22.08L92.3291 20.92L88.4891 22.72L88.3291 22.52L89.8091 13.56C90.0091 12.44 90.1291 10.92 90.1291 10.04C90.1291 7.6 88.7691 6 86.3291 6C82.5291 6 79.8891 8.64 77.3291 14.72L76.8891 14.48C77.4891 12.16 77.6891 10.92 77.6891 9.84C77.6891 7.6 76.4891 6 74.1691 6C70.3691 6 67.6891 8.64 65.1291 14.72L64.6891 14.48C65.4891 9.92 65.6891 8.72 65.6891 7.88C65.6891 6.8 65.0491 6 63.8891 6C61.9691 6 59.8491 7.32 56.0891 10.88L56.4891 12.04L60.3691 10.2L60.5291 10.36L58.1691 26.96L63.3691 26.36C65.4891 15.92 68.5291 10.28 71.4091 10.28C72.2891 10.28 72.6891 10.88 72.6891 11.88C72.6891 12.36 72.6091 13.16 72.4891 13.92L70.3691 26.96L75.5691 26.36C77.6891 15.92 80.7291 10.28 83.5691 10.28C84.4491 10.28 84.8491 10.88 84.8491 11.88C84.8491 12.36 84.7691 13.16 84.6491 13.92L83.1691 22.44C82.8891 24.2 82.8491 24.68 82.8491 25.12C82.8491 26.24 83.4891 26.96 84.5691 26.96Z" fill="white"/>
<path d="M101.813 26.92C108.493 26.92 113.373 22 113.373 15.04C113.373 9.44 110.093 6 104.853 6C98.1731 6 93.3331 10.96 93.3331 17.84C93.3331 23.48 96.5731 26.92 101.813 26.92ZM102.053 24.88C100.253 24.4 99.0131 21.64 99.0131 18.16C99.0131 12.64 101.373 8.44 104.613 8.16C106.453 8.56 107.693 11.32 107.693 14.8C107.693 20.32 105.333 24.56 102.053 24.88Z" fill="white"/>
</g>
<defs>
<clipPath id="clip0_531_258">
<rect width="32" height="32" fill="white"/>
</clipPath>
</defs>
</svg>
