<svg width="1260" height="1260" viewBox="0 0 1260 1260" fill="none" xmlns="http://www.w3.org/2000/svg">
<rect x="210" y="210" width="210" height="210" transform="rotate(90 210 210)" fill="#022601" fill-opacity="0.5"/>
<rect x="210" y="1050" width="210" height="210" transform="rotate(90 210 1050)" fill="#bf8563"/>
<circle cx="105" cy="525" r="105" transform="rotate(90 105 525)" fill="#bf8563"/>
<path d="M210 210C196.211 210 182.557 207.291 169.818 202.026C157.079 196.762 145.504 189.046 135.754 179.319C126.004 169.592 118.269 158.045 112.993 145.336C107.716 132.627 105 119.006 105 105.25L210 105.25L210 210Z" fill="#022601"/>
<path d="M210 104.751C196.211 104.751 182.557 102.041 169.818 96.7769C157.079 91.5127 145.504 83.7969 135.754 74.0699C126.004 64.3429 118.269 52.7952 112.993 40.0863C107.716 27.3774 105 13.756 105 0L210 3.03248e-06L210 104.751Z" fill="#022601"/>
<path d="M1.66879e-06 210C13.7888 210 27.4426 207.291 40.1818 202.026C52.9209 196.762 64.4961 189.046 74.2462 179.319C83.9964 169.592 91.7306 158.045 97.0074 145.336C102.284 132.627 105 119.006 105 105.25L6.25849e-06 105.25L1.66879e-06 210Z" fill="white"/>
<path d="M1.66879e-06 104.751C13.7888 104.751 27.4426 102.041 40.1818 96.7769C52.9209 91.5127 64.4961 83.7969 74.2462 74.0699C83.9964 64.3429 91.7306 52.7953 97.0074 40.0863C102.284 27.3774 105 13.756 105 0L6.25849e-06 3.03248e-06L1.66879e-06 104.751Z" fill="#bf8563"/>
<path d="M210 1050C196.211 1050 182.557 1047.29 169.818 1042.03C157.079 1036.76 145.504 1029.05 135.754 1019.32C126.004 1009.59 118.269 998.045 112.993 985.336C107.716 972.627 105 959.006 105 945.25L210 945.25L210 1050Z" fill="#022601"/>
<path d="M210 944.751C196.211 944.751 182.557 942.041 169.818 936.777C157.079 931.513 145.504 923.797 135.754 914.07C126.004 904.343 118.269 892.795 112.993 880.086C107.716 867.377 105 853.756 105 840L210 840L210 944.751Z" fill="#022601"/>
<path d="M1.66879e-06 1050C13.7888 1050 27.4426 1047.29 40.1818 1042.03C52.9209 1036.76 64.4961 1029.05 74.2462 1019.32C83.9964 1009.59 91.7306 998.045 97.0074 985.336C102.284 972.627 105 959.006 105 945.25L6.25849e-06 945.25L1.66879e-06 1050Z" fill="white"/>
<path d="M1.66879e-06 944.751C13.7888 944.751 27.4426 942.041 40.1818 936.777C52.9209 931.513 64.4961 923.797 74.2462 914.07C83.9964 904.343 91.7306 892.795 97.0074 880.086C102.284 867.377 105 853.756 105 840L6.25849e-06 840L1.66879e-06 944.751Z" fill="#bf8563"/>
<path d="M210 840C196.211 840 182.557 837.284 169.818 832.007C157.079 826.731 145.504 818.996 135.754 809.246C126.004 799.496 118.269 787.921 112.993 775.182C107.716 762.443 105 748.789 105 735C105 721.211 107.716 707.557 112.993 694.818C118.269 682.079 126.004 670.504 135.754 660.754C145.504 651.004 157.079 643.269 169.818 637.993C182.557 632.716 196.211 630 210 630L210 735L210 840Z" fill="#022601"/>
<path d="M-9.17939e-06 840C13.7888 840 27.4426 837.284 40.1818 832.007C52.9209 826.731 64.4961 818.996 74.2462 809.246C83.9964 799.496 91.7306 787.921 97.0073 775.182C102.284 762.443 105 748.789 105 735C105 721.211 102.284 707.557 97.0073 694.818C91.7306 682.079 83.9964 670.504 74.2462 660.754C64.4961 651.004 52.9209 643.269 40.1818 637.993C27.4426 632.716 13.7888 630 -7.62939e-06 630L-4.5897e-06 735L-9.17939e-06 840Z" fill="#022601" fill-opacity="0.5"/>
<rect x="420" y="630" width="210" height="210" transform="rotate(90 420 630)" fill="#022601" fill-opacity="0.5"/>
<rect x="420" y="210" width="210" height="210" transform="rotate(90 420 210)" fill="#bf8563"/>
<circle cx="315" cy="945" r="105" transform="rotate(90 315 945)" fill="#bf8563"/>
<path d="M420 630C406.211 630 392.557 627.291 379.818 622.026C367.079 616.762 355.504 609.046 345.754 599.319C336.004 589.592 328.269 578.045 322.993 565.336C317.716 552.627 315 539.006 315 525.25L420 525.25L420 630Z" fill="#022601"/>
<path d="M420 524.751C406.211 524.751 392.557 522.041 379.818 516.777C367.079 511.513 355.504 503.797 345.754 494.07C336.004 484.343 328.269 472.795 322.993 460.086C317.716 447.377 315 433.756 315 420L420 420L420 524.751Z" fill="#022601"/>
<path d="M210 630C223.789 630 237.443 627.291 250.182 622.026C262.921 616.762 274.496 609.046 284.246 599.319C293.996 589.592 301.731 578.045 307.007 565.336C312.284 552.627 315 539.006 315 525.25L210 525.25L210 630Z" fill="white"/>
<path d="M210 524.751C223.789 524.751 237.443 522.041 250.182 516.777C262.921 511.513 274.496 503.797 284.246 494.07C293.996 484.343 301.731 472.795 307.007 460.086C312.284 447.377 315 433.756 315 420L210 420L210 524.751Z" fill="#bf8563"/>
<path d="M420 210C406.211 210 392.557 207.291 379.818 202.026C367.079 196.762 355.504 189.046 345.754 179.319C336.004 169.592 328.269 158.045 322.993 145.336C317.716 132.627 315 119.006 315 105.25L420 105.25L420 210Z" fill="#022601"/>
<path d="M420 104.751C406.211 104.751 392.557 102.041 379.818 96.7769C367.079 91.5127 355.504 83.7969 345.754 74.0699C336.004 64.3429 328.269 52.7952 322.993 40.0863C317.716 27.3774 315 13.756 315 0L420 3.03248e-06L420 104.751Z" fill="#022601"/>
<path d="M210 210C223.789 210 237.443 207.291 250.182 202.026C262.921 196.762 274.496 189.046 284.246 179.319C293.996 169.592 301.731 158.045 307.007 145.336C312.284 132.627 315 119.006 315 105.25L210 105.25L210 210Z" fill="white"/>
<path d="M210 104.751C223.789 104.751 237.443 102.041 250.182 96.7769C262.921 91.5127 274.496 83.7969 284.246 74.0699C293.996 64.3429 301.731 52.7953 307.007 40.0863C312.284 27.3774 315 13.756 315 0L210 3.03248e-06L210 104.751Z" fill="#bf8563"/>
<path d="M420 1260C406.211 1260 392.557 1257.28 379.818 1252.01C367.079 1246.73 355.504 1239 345.754 1229.25C336.004 1219.5 328.269 1207.92 322.993 1195.18C317.716 1182.44 315 1168.79 315 1155C315 1141.21 317.716 1127.56 322.993 1114.82C328.269 1102.08 336.004 1090.5 345.754 1080.75C355.504 1071 367.079 1063.27 379.818 1057.99C392.557 1052.72 406.211 1050 420 1050L420 1155L420 1260Z" fill="#022601"/>
<path d="M210 1260C223.789 1260 237.443 1257.28 250.182 1252.01C262.921 1246.73 274.496 1239 284.246 1229.25C293.996 1219.5 301.731 1207.92 307.007 1195.18C312.284 1182.44 315 1168.79 315 1155C315 1141.21 312.284 1127.56 307.007 1114.82C301.731 1102.08 293.996 1090.5 284.246 1080.75C274.496 1071 262.921 1063.27 250.182 1057.99C237.443 1052.72 223.789 1050 210 1050L210 1155L210 1260Z" fill="#022601" fill-opacity="0.5"/>
<rect x="630" y="1050" width="210" height="210" transform="rotate(90 630 1050)" fill="#022601" fill-opacity="0.5"/>
<rect x="630" y="630" width="210" height="210" transform="rotate(90 630 630)" fill="#bf8563"/>
<circle cx="525" cy="105" r="105" transform="rotate(90 525 105)" fill="#bf8563"/>
<path d="M630 1050C616.211 1050 602.557 1047.29 589.818 1042.03C577.079 1036.76 565.504 1029.05 555.754 1019.32C546.004 1009.59 538.269 998.045 532.993 985.336C527.716 972.627 525 959.006 525 945.25L630 945.25L630 1050Z" fill="#022601"/>
<path d="M630 944.751C616.211 944.751 602.557 942.041 589.818 936.777C577.079 931.513 565.504 923.797 555.754 914.07C546.004 904.343 538.269 892.795 532.993 880.086C527.716 867.377 525 853.756 525 840L630 840L630 944.751Z" fill="#022601"/>
<path d="M420 1050C433.789 1050 447.443 1047.29 460.182 1042.03C472.921 1036.76 484.496 1029.05 494.246 1019.32C503.996 1009.59 511.731 998.045 517.007 985.336C522.284 972.627 525 959.006 525 945.25L420 945.25L420 1050Z" fill="white"/>
<path d="M420 944.751C433.789 944.751 447.443 942.041 460.182 936.777C472.921 931.513 484.496 923.797 494.246 914.07C503.996 904.343 511.731 892.795 517.007 880.086C522.284 867.377 525 853.756 525 840L420 840L420 944.751Z" fill="#bf8563"/>
<path d="M630 630C616.211 630 602.557 627.291 589.818 622.026C577.079 616.762 565.504 609.046 555.754 599.319C546.004 589.592 538.269 578.045 532.993 565.336C527.716 552.627 525 539.006 525 525.25L630 525.25L630 630Z" fill="#022601"/>
<path d="M630 524.751C616.211 524.751 602.557 522.041 589.818 516.777C577.079 511.513 565.504 503.797 555.754 494.07C546.004 484.343 538.269 472.795 532.993 460.086C527.716 447.377 525 433.756 525 420L630 420L630 524.751Z" fill="#022601"/>
<path d="M420 630C433.789 630 447.443 627.291 460.182 622.026C472.921 616.762 484.496 609.046 494.246 599.319C503.996 589.592 511.731 578.045 517.007 565.336C522.284 552.627 525 539.006 525 525.25L420 525.25L420 630Z" fill="white"/>
<path d="M420 524.751C433.789 524.751 447.443 522.041 460.182 516.777C472.921 511.513 484.496 503.797 494.246 494.07C503.996 484.343 511.731 472.795 517.007 460.086C522.284 447.377 525 433.756 525 420L420 420L420 524.751Z" fill="#bf8563"/>
<path d="M630 420C616.211 420 602.557 417.284 589.818 412.007C577.079 406.731 565.504 398.996 555.754 389.246C546.004 379.496 538.269 367.921 532.993 355.182C527.716 342.443 525 328.789 525 315C525 301.211 527.716 287.557 532.993 274.818C538.269 262.079 546.004 250.504 555.754 240.754C565.504 231.004 577.079 223.269 589.818 217.993C602.557 212.716 616.211 210 630 210L630 315L630 420Z" fill="#022601"/>
<path d="M420 420C433.789 420 447.443 417.284 460.182 412.007C472.921 406.731 484.496 398.996 494.246 389.246C503.996 379.496 511.731 367.921 517.007 355.182C522.284 342.443 525 328.789 525 315C525 301.211 522.284 287.557 517.007 274.818C511.731 262.079 503.996 250.504 494.246 240.754C484.496 231.004 472.921 223.269 460.182 217.993C447.443 212.716 433.789 210 420 210L420 315L420 420Z" fill="#022601" fill-opacity="0.5"/>
<rect x="840" y="210" width="210" height="210" transform="rotate(90 840 210)" fill="#022601" fill-opacity="0.5"/>
<rect x="840" y="1050" width="210" height="210" transform="rotate(90 840 1050)" fill="#bf8563"/>
<circle cx="735" cy="525" r="105" transform="rotate(90 735 525)" fill="#bf8563"/>
<path d="M840 210C826.211 210 812.557 207.291 799.818 202.026C787.079 196.762 775.504 189.046 765.754 179.319C756.004 169.592 748.269 158.045 742.993 145.336C737.716 132.627 735 119.006 735 105.25L840 105.25L840 210Z" fill="#022601"/>
<path d="M840 104.751C826.211 104.751 812.557 102.041 799.818 96.7769C787.079 91.5127 775.504 83.7969 765.754 74.0699C756.004 64.3429 748.269 52.7952 742.993 40.0863C737.716 27.3774 735 13.756 735 0L840 3.03248e-06L840 104.751Z" fill="#022601"/>
<path d="M630 210C643.789 210 657.443 207.291 670.182 202.026C682.921 196.762 694.496 189.046 704.246 179.319C713.996 169.592 721.731 158.045 727.007 145.336C732.284 132.627 735 119.006 735 105.25L630 105.25L630 210Z" fill="white"/>
<path d="M630 104.751C643.789 104.751 657.443 102.041 670.182 96.7769C682.921 91.5127 694.496 83.7969 704.246 74.0699C713.996 64.3429 721.731 52.7953 727.007 40.0863C732.284 27.3774 735 13.756 735 0L630 3.03248e-06L630 104.751Z" fill="#bf8563"/>
<path d="M840 1050C826.211 1050 812.557 1047.29 799.818 1042.03C787.079 1036.76 775.504 1029.05 765.754 1019.32C756.004 1009.59 748.269 998.045 742.993 985.336C737.716 972.627 735 959.006 735 945.25L840 945.25L840 1050Z" fill="#022601"/>
<path d="M840 944.751C826.211 944.751 812.557 942.041 799.818 936.777C787.079 931.513 775.504 923.797 765.754 914.07C756.004 904.343 748.269 892.795 742.993 880.086C737.716 867.377 735 853.756 735 840L840 840L840 944.751Z" fill="#022601"/>
<path d="M630 1050C643.789 1050 657.443 1047.29 670.182 1042.03C682.921 1036.76 694.496 1029.05 704.246 1019.32C713.996 1009.59 721.731 998.045 727.007 985.336C732.284 972.627 735 959.006 735 945.25L630 945.25L630 1050Z" fill="white"/>
<path d="M630 944.751C643.789 944.751 657.443 942.041 670.182 936.777C682.921 931.513 694.496 923.797 704.246 914.07C713.996 904.343 721.731 892.795 727.007 880.086C732.284 867.377 735 853.756 735 840L630 840L630 944.751Z" fill="#bf8563"/>
<path d="M840 840C826.211 840 812.557 837.284 799.818 832.007C787.079 826.731 775.504 818.996 765.754 809.246C756.004 799.496 748.269 787.921 742.993 775.182C737.716 762.443 735 748.789 735 735C735 721.211 737.716 707.557 742.993 694.818C748.269 682.079 756.004 670.504 765.754 660.754C775.504 651.004 787.079 643.269 799.818 637.993C812.557 632.716 826.211 630 840 630L840 735L840 840Z" fill="#022601"/>
<path d="M630 840C643.789 840 657.443 837.284 670.182 832.007C682.921 826.731 694.496 818.996 704.246 809.246C713.996 799.496 721.731 787.921 727.007 775.182C732.284 762.443 735 748.789 735 735C735 721.211 732.284 707.557 727.007 694.818C721.731 682.079 713.996 670.504 704.246 660.754C694.496 651.004 682.921 643.269 670.182 637.993C657.443 632.716 643.789 630 630 630L630 735L630 840Z" fill="#022601" fill-opacity="0.5"/>
<rect x="1050" y="630" width="210" height="210" transform="rotate(90 1050 630)" fill="#022601" fill-opacity="0.5"/>
<rect x="1050" y="210" width="210" height="210" transform="rotate(90 1050 210)" fill="#bf8563"/>
<circle cx="945" cy="945" r="105" transform="rotate(90 945 945)" fill="#bf8563"/>
<path d="M1050 630C1036.21 630 1022.56 627.291 1009.82 622.026C997.079 616.762 985.504 609.046 975.754 599.319C966.004 589.592 958.269 578.045 952.993 565.336C947.716 552.627 945 539.006 945 525.25L1050 525.25L1050 630Z" fill="#022601"/>
<path d="M1050 524.751C1036.21 524.751 1022.56 522.041 1009.82 516.777C997.079 511.513 985.504 503.797 975.754 494.07C966.004 484.343 958.269 472.795 952.993 460.086C947.716 447.377 945 433.756 945 420L1050 420L1050 524.751Z" fill="#022601"/>
<path d="M840 630C853.789 630 867.443 627.291 880.182 622.026C892.921 616.762 904.496 609.046 914.246 599.319C923.996 589.592 931.731 578.045 937.007 565.336C942.284 552.627 945 539.006 945 525.25L840 525.25L840 630Z" fill="white"/>
<path d="M840 524.751C853.789 524.751 867.443 522.041 880.182 516.777C892.921 511.513 904.496 503.797 914.246 494.07C923.996 484.343 931.731 472.795 937.007 460.086C942.284 447.377 945 433.756 945 420L840 420L840 524.751Z" fill="#bf8563"/>
<path d="M1050 210C1036.21 210 1022.56 207.291 1009.82 202.026C997.079 196.762 985.504 189.046 975.754 179.319C966.004 169.592 958.269 158.045 952.993 145.336C947.716 132.627 945 119.006 945 105.25L1050 105.25L1050 210Z" fill="#022601"/>
<path d="M1050 104.751C1036.21 104.751 1022.56 102.041 1009.82 96.7769C997.079 91.5127 985.504 83.7969 975.754 74.0699C966.004 64.3429 958.269 52.7952 952.993 40.0863C947.716 27.3774 945 13.756 945 0L1050 3.03248e-06L1050 104.751Z" fill="#022601"/>
<path d="M840 210C853.789 210 867.443 207.291 880.182 202.026C892.921 196.762 904.496 189.046 914.246 179.319C923.996 169.592 931.731 158.045 937.007 145.336C942.284 132.627 945 119.006 945 105.25L840 105.25L840 210Z" fill="white"/>
<path d="M840 104.751C853.789 104.751 867.443 102.041 880.182 96.7769C892.921 91.5127 904.496 83.7969 914.246 74.0699C923.996 64.3429 931.731 52.7953 937.007 40.0863C942.284 27.3774 945 13.756 945 0L840 3.03248e-06L840 104.751Z" fill="#bf8563"/>
<path d="M1050 1260C1036.21 1260 1022.56 1257.28 1009.82 1252.01C997.079 1246.73 985.504 1239 975.754 1229.25C966.004 1219.5 958.269 1207.92 952.993 1195.18C947.716 1182.44 945 1168.79 945 1155C945 1141.21 947.716 1127.56 952.993 1114.82C958.269 1102.08 966.004 1090.5 975.754 1080.75C985.504 1071 997.079 1063.27 1009.82 1057.99C1022.56 1052.72 1036.21 1050 1050 1050L1050 1155L1050 1260Z" fill="#022601"/>
<path d="M840 1260C853.789 1260 867.443 1257.28 880.182 1252.01C892.921 1246.73 904.496 1239 914.246 1229.25C923.996 1219.5 931.731 1207.92 937.007 1195.18C942.284 1182.44 945 1168.79 945 1155C945 1141.21 942.284 1127.56 937.007 1114.82C931.731 1102.08 923.996 1090.5 914.246 1080.75C904.496 1071 892.921 1063.27 880.182 1057.99C867.443 1052.72 853.789 1050 840 1050L840 1155L840 1260Z" fill="#022601" fill-opacity="0.5"/>
<rect x="1260" y="1050" width="210" height="210" transform="rotate(90 1260 1050)" fill="#022601" fill-opacity="0.5"/>
<rect x="1260" y="630" width="210" height="210" transform="rotate(90 1260 630)" fill="#bf8563"/>
<circle cx="1155" cy="105" r="105" transform="rotate(90 1155 105)" fill="#bf8563"/>
<path d="M1260 1050C1246.21 1050 1232.56 1047.29 1219.82 1042.03C1207.08 1036.76 1195.5 1029.05 1185.75 1019.32C1176 1009.59 1168.27 998.045 1162.99 985.336C1157.72 972.627 1155 959.006 1155 945.25L1260 945.25L1260 1050Z" fill="#022601"/>
<path d="M1260 944.751C1246.21 944.751 1232.56 942.041 1219.82 936.777C1207.08 931.513 1195.5 923.797 1185.75 914.07C1176 904.343 1168.27 892.795 1162.99 880.086C1157.72 867.377 1155 853.756 1155 840L1260 840L1260 944.751Z" fill="#022601"/>
<path d="M1050 1050C1063.79 1050 1077.44 1047.29 1090.18 1042.03C1102.92 1036.76 1114.5 1029.05 1124.25 1019.32C1134 1009.59 1141.73 998.045 1147.01 985.336C1152.28 972.627 1155 959.006 1155 945.25L1050 945.25L1050 1050Z" fill="white"/>
<path d="M1050 944.751C1063.79 944.751 1077.44 942.041 1090.18 936.777C1102.92 931.513 1114.5 923.797 1124.25 914.07C1134 904.343 1141.73 892.795 1147.01 880.086C1152.28 867.377 1155 853.756 1155 840L1050 840L1050 944.751Z" fill="#bf8563"/>
<path d="M1260 630C1246.21 630 1232.56 627.291 1219.82 622.026C1207.08 616.762 1195.5 609.046 1185.75 599.319C1176 589.592 1168.27 578.045 1162.99 565.336C1157.72 552.627 1155 539.006 1155 525.25L1260 525.25L1260 630Z" fill="#022601"/>
<path d="M1260 524.751C1246.21 524.751 1232.56 522.041 1219.82 516.777C1207.08 511.513 1195.5 503.797 1185.75 494.07C1176 484.343 1168.27 472.795 1162.99 460.086C1157.72 447.377 1155 433.756 1155 420L1260 420L1260 524.751Z" fill="#022601"/>
<path d="M1050 630C1063.79 630 1077.44 627.291 1090.18 622.026C1102.92 616.762 1114.5 609.046 1124.25 599.319C1134 589.592 1141.73 578.045 1147.01 565.336C1152.28 552.627 1155 539.006 1155 525.25L1050 525.25L1050 630Z" fill="white"/>
<path d="M1050 524.751C1063.79 524.751 1077.44 522.041 1090.18 516.777C1102.92 511.513 1114.5 503.797 1124.25 494.07C1134 484.343 1141.73 472.795 1147.01 460.086C1152.28 447.377 1155 433.756 1155 420L1050 420L1050 524.751Z" fill="#bf8563"/>
<path d="M1260 420C1246.21 420 1232.56 417.284 1219.82 412.007C1207.08 406.731 1195.5 398.996 1185.75 389.246C1176 379.496 1168.27 367.921 1162.99 355.182C1157.72 342.443 1155 328.789 1155 315C1155 301.211 1157.72 287.557 1162.99 274.818C1168.27 262.079 1176 250.504 1185.75 240.754C1195.5 231.004 1207.08 223.269 1219.82 217.993C1232.56 212.716 1246.21 210 1260 210L1260 315L1260 420Z" fill="#022601"/>
<path d="M1050 420C1063.79 420 1077.44 417.284 1090.18 412.007C1102.92 406.731 1114.5 398.996 1124.25 389.246C1134 379.496 1141.73 367.921 1147.01 355.182C1152.28 342.443 1155 328.789 1155 315C1155 301.211 1152.28 287.557 1147.01 274.818C1141.73 262.079 1134 250.504 1124.25 240.754C1114.5 231.004 1102.92 223.269 1090.18 217.993C1077.44 212.716 1063.79 210 1050 210L1050 315L1050 420Z" fill="#022601" fill-opacity="0.5"/>
</svg>
