<svg width="438" height="24" viewBox="0 0 438 24" fill="none" xmlns="http://www.w3.org/2000/svg">
<mask id="mask0_520_9" style="mask-type:alpha" maskUnits="userSpaceOnUse" x="0" y="0" width="438" height="24">
<rect width="438" height="24" fill="#D9D9D9"/>
</mask>
<g mask="url(#mask0_520_9)">
<path d="M388.681 8.39366C400.228 10.009 412.006 10.5159 422.84 11.5054C429.151 12.0818 439.65 13.2251 437.522 13.3834C422.448 14.5031 446.258 19.3759 418.028 19.1606C303.444 18.2892 219.089 22.453 112.537 22.919C105.051 22.9518 98 23.0609 90.5891 23.1072C47.7578 23.3736 47.7407 23.3707 20.5269 16.9767C-7.46148 10.3987 -7.61856 9.95222 30.4912 8.63582C109.665 5.90087 189.392 3.2461 274.006 1.33621C300.39 0.740427 329.544 0.596146 370.629 3.1481C381.707 3.82055 392.991 4.65048 404.142 5.61292C413.74 6.45782 425.901 7.67302 426.75 8.79195C427.635 9.95342 414.999 8.81206 407.22 8.44697C400.092 8.10895 392.67 7.70681 388.681 8.39366Z" fill="#038C33"/>
</g>
</svg>
